<mxfile host="app.diagrams.net" modified="2024-05-21T17:25:03.381Z" agent="Mozilla/5.0 (Macintosh; Intel Mac OS X 10_15_7) AppleWebKit/537.36 (KHTML, like Gecko) Chrome/124.0.0.0 Safari/537.36" etag="wKwzuQIe2dXBKL5goPJ2" version="24.4.4" type="github">
  <diagram id="yPxyJZ8AM_hMuL3Unpa9" name="complex gitflow">
    <mxGraphModel dx="1086" dy="865" grid="1" gridSize="10" guides="1" tooltips="1" connect="1" arrows="1" fold="1" page="1" pageScale="1" pageWidth="1100" pageHeight="850" math="0" shadow="0">
      <root>
        <mxCell id="0" />
        <mxCell id="1" parent="0" />
        <mxCell id="pSRFpLWkt5KEMf-9QIBS-77" value="&lt;div style=&quot;&quot;&gt;SingleResult&lt;br&gt;useSingleResult&lt;/div&gt;" style="rounded=0;whiteSpace=wrap;html=1;align=right;verticalAlign=middle;fontFamily=Courier New;fontSize=14;fontStyle=1;fillColor=#ffcccc;strokeColor=#36393d;opacity=50;" vertex="1" parent="1">
          <mxGeometry x="10" y="619" width="510" height="90" as="geometry" />
        </mxCell>
        <mxCell id="pSRFpLWkt5KEMf-9QIBS-76" value="&lt;div style=&quot;&quot;&gt;ResultList&lt;/div&gt;" style="rounded=0;whiteSpace=wrap;html=1;align=right;verticalAlign=middle;fontFamily=Courier New;fontSize=14;fontStyle=1;fillColor=#d5e8d4;strokeColor=#82b366;opacity=50;" vertex="1" parent="1">
          <mxGeometry x="10" y="530" width="510" height="90" as="geometry" />
        </mxCell>
        <mxCell id="pSRFpLWkt5KEMf-9QIBS-74" value="&lt;div style=&quot;&quot;&gt;useUserSearch&lt;br&gt;FetchUsers&lt;br&gt;useContext&lt;/div&gt;" style="rounded=0;whiteSpace=wrap;html=1;align=right;verticalAlign=middle;fontFamily=Courier New;fontSize=14;fontStyle=1;fillColor=#ffe6cc;strokeColor=#d79b00;opacity=50;" vertex="1" parent="1">
          <mxGeometry x="10" y="440" width="510" height="90" as="geometry" />
        </mxCell>
        <mxCell id="pSRFpLWkt5KEMf-9QIBS-73" value="&lt;div style=&quot;&quot;&gt;Input&lt;br&gt;in&lt;br&gt;UserSearch&lt;/div&gt;" style="rounded=0;whiteSpace=wrap;html=1;align=right;verticalAlign=middle;fontFamily=Courier New;fontSize=14;fontStyle=1;fillColor=#dae8fc;strokeColor=#6c8ebf;opacity=50;" vertex="1" parent="1">
          <mxGeometry x="10" y="350" width="510" height="90" as="geometry" />
        </mxCell>
        <mxCell id="pSRFpLWkt5KEMf-9QIBS-71" value="&lt;div style=&quot;&quot;&gt;&lt;span style=&quot;background-color: initial;&quot;&gt;Main.tsx&lt;/span&gt;&lt;/div&gt;" style="rounded=0;whiteSpace=wrap;html=1;align=right;verticalAlign=middle;fontFamily=Courier New;fontSize=14;fontStyle=1;fillColor=#d5e8d4;strokeColor=#82b366;opacity=50;" vertex="1" parent="1">
          <mxGeometry x="10" y="30" width="510" height="200" as="geometry" />
        </mxCell>
        <mxCell id="pSRFpLWkt5KEMf-9QIBS-72" value="&lt;div style=&quot;&quot;&gt;&lt;span style=&quot;background-color: initial;&quot;&gt;App.tsx&lt;/span&gt;&lt;/div&gt;" style="rounded=0;whiteSpace=wrap;html=1;align=right;verticalAlign=middle;fontFamily=Courier New;fontSize=14;fontStyle=1;fillColor=#f8cecc;strokeColor=#b85450;opacity=50;" vertex="1" parent="1">
          <mxGeometry x="10" y="230" width="510" height="120" as="geometry" />
        </mxCell>
        <mxCell id="pSRFpLWkt5KEMf-9QIBS-17" value="Order of operations" style="swimlane;startSize=20;horizontal=1;childLayout=flowLayout;flowOrientation=north;resizable=0;interRankCellSpacing=50;containerType=tree;fontSize=12;align=center;verticalAlign=middle;fontFamily=Courier New;fontColor=default;fontStyle=1;fillColor=none;gradientColor=none;" vertex="1" parent="1">
          <mxGeometry width="308" height="709" as="geometry" />
        </mxCell>
        <mxCell id="pSRFpLWkt5KEMf-9QIBS-18" value="Start program" style="whiteSpace=wrap;html=1;align=center;verticalAlign=middle;fontFamily=Courier New;fontSize=14;fontColor=default;fontStyle=1;fillColor=none;gradientColor=none;" vertex="1" parent="pSRFpLWkt5KEMf-9QIBS-17">
          <mxGeometry x="85" y="40" width="100" height="40" as="geometry" />
        </mxCell>
        <mxCell id="pSRFpLWkt5KEMf-9QIBS-19" value="Wrap client in queryclient provider" style="whiteSpace=wrap;html=1;align=center;verticalAlign=middle;fontFamily=Courier New;fontSize=14;fontColor=default;fontStyle=1;fillColor=none;gradientColor=none;" vertex="1" parent="pSRFpLWkt5KEMf-9QIBS-17">
          <mxGeometry x="85" y="130" width="100" height="88.5" as="geometry" />
        </mxCell>
        <mxCell id="pSRFpLWkt5KEMf-9QIBS-20" value="" style="html=1;rounded=1;curved=0;sourcePerimeterSpacing=0;targetPerimeterSpacing=0;startSize=6;endSize=6;fontFamily=Courier New;fontSize=14;fontColor=default;fontStyle=1;noEdgeStyle=1;orthogonal=1;" edge="1" parent="pSRFpLWkt5KEMf-9QIBS-17" source="pSRFpLWkt5KEMf-9QIBS-18" target="pSRFpLWkt5KEMf-9QIBS-19">
          <mxGeometry relative="1" as="geometry">
            <Array as="points">
              <mxPoint x="135" y="92" />
              <mxPoint x="135" y="118" />
            </Array>
          </mxGeometry>
        </mxCell>
        <mxCell id="pSRFpLWkt5KEMf-9QIBS-43" value="" style="html=1;rounded=1;curved=0;sourcePerimeterSpacing=0;targetPerimeterSpacing=0;startSize=6;endSize=6;fontFamily=Courier New;fontSize=14;fontColor=default;fontStyle=1;noEdgeStyle=1;orthogonal=1;" edge="1" target="pSRFpLWkt5KEMf-9QIBS-44" source="pSRFpLWkt5KEMf-9QIBS-19" parent="pSRFpLWkt5KEMf-9QIBS-17">
          <mxGeometry relative="1" as="geometry">
            <mxPoint x="790" y="1520" as="sourcePoint" />
            <Array as="points">
              <mxPoint x="112.5" y="230.5" />
              <mxPoint x="70" y="256.5" />
            </Array>
          </mxGeometry>
        </mxCell>
        <mxCell id="pSRFpLWkt5KEMf-9QIBS-44" value="&lt;div&gt;Render Title&lt;/div&gt;" style="whiteSpace=wrap;html=1;align=center;verticalAlign=middle;fontFamily=Courier New;fontSize=14;fontColor=default;fontStyle=1;fillColor=none;gradientColor=none;" vertex="1" parent="pSRFpLWkt5KEMf-9QIBS-17">
          <mxGeometry x="20" y="268.5" width="100" height="60" as="geometry" />
        </mxCell>
        <mxCell id="pSRFpLWkt5KEMf-9QIBS-49" value="" style="html=1;rounded=1;curved=0;sourcePerimeterSpacing=0;targetPerimeterSpacing=0;startSize=6;endSize=6;fontFamily=Courier New;fontSize=14;fontColor=default;fontStyle=1;noEdgeStyle=1;orthogonal=1;" edge="1" target="pSRFpLWkt5KEMf-9QIBS-50" source="pSRFpLWkt5KEMf-9QIBS-19" parent="pSRFpLWkt5KEMf-9QIBS-17">
          <mxGeometry relative="1" as="geometry">
            <mxPoint x="730" y="1400" as="sourcePoint" />
            <Array as="points">
              <mxPoint x="157.5" y="230.5" />
              <mxPoint x="200" y="256.5" />
            </Array>
          </mxGeometry>
        </mxCell>
        <mxCell id="pSRFpLWkt5KEMf-9QIBS-50" value="SearchBar&lt;br&gt;Render" style="whiteSpace=wrap;html=1;align=center;verticalAlign=middle;fontFamily=Courier New;fontSize=14;fontColor=default;fontStyle=1;fillColor=none;gradientColor=none;" vertex="1" parent="pSRFpLWkt5KEMf-9QIBS-17">
          <mxGeometry x="150" y="278.5" width="100" height="40" as="geometry" />
        </mxCell>
        <mxCell id="pSRFpLWkt5KEMf-9QIBS-51" value="" style="html=1;rounded=1;curved=0;sourcePerimeterSpacing=0;targetPerimeterSpacing=0;startSize=6;endSize=6;fontFamily=Courier New;fontSize=14;fontColor=default;fontStyle=1;noEdgeStyle=1;orthogonal=1;" edge="1" target="pSRFpLWkt5KEMf-9QIBS-52" source="pSRFpLWkt5KEMf-9QIBS-50" parent="pSRFpLWkt5KEMf-9QIBS-17">
          <mxGeometry relative="1" as="geometry">
            <mxPoint x="738" y="1330" as="sourcePoint" />
            <Array as="points">
              <mxPoint x="200" y="340.5" />
              <mxPoint x="172.91666666666666" y="366.5" />
            </Array>
          </mxGeometry>
        </mxCell>
        <mxCell id="pSRFpLWkt5KEMf-9QIBS-52" value="Take Input" style="whiteSpace=wrap;html=1;align=center;verticalAlign=middle;fontFamily=Courier New;fontSize=14;fontColor=default;fontStyle=1;fillColor=none;gradientColor=none;" vertex="1" parent="pSRFpLWkt5KEMf-9QIBS-17">
          <mxGeometry x="122.91666666666666" y="378.5" width="100" height="40" as="geometry" />
        </mxCell>
        <mxCell id="pSRFpLWkt5KEMf-9QIBS-53" value="" style="html=1;rounded=1;curved=0;sourcePerimeterSpacing=0;targetPerimeterSpacing=0;startSize=6;endSize=6;fontFamily=Courier New;fontSize=14;fontColor=default;fontStyle=1;noEdgeStyle=1;orthogonal=1;" edge="1" target="pSRFpLWkt5KEMf-9QIBS-54" source="pSRFpLWkt5KEMf-9QIBS-52" parent="pSRFpLWkt5KEMf-9QIBS-17">
          <mxGeometry relative="1" as="geometry">
            <mxPoint x="740" y="1350" as="sourcePoint" />
            <Array as="points">
              <mxPoint x="172.91666666666666" y="430.5" />
              <mxPoint x="147.63888888888886" y="456.5" />
            </Array>
          </mxGeometry>
        </mxCell>
        <mxCell id="pSRFpLWkt5KEMf-9QIBS-54" value="Fetch Data" style="whiteSpace=wrap;html=1;align=center;verticalAlign=middle;fontFamily=Courier New;fontSize=14;fontColor=default;fontStyle=1;fillColor=none;gradientColor=none;" vertex="1" parent="pSRFpLWkt5KEMf-9QIBS-17">
          <mxGeometry x="97.63888888888887" y="468.5" width="100" height="40" as="geometry" />
        </mxCell>
        <mxCell id="pSRFpLWkt5KEMf-9QIBS-61" value="" style="html=1;rounded=1;curved=0;sourcePerimeterSpacing=0;targetPerimeterSpacing=0;startSize=6;endSize=6;fontFamily=Courier New;fontSize=14;fontColor=default;fontStyle=1;noEdgeStyle=1;orthogonal=1;" edge="1" target="pSRFpLWkt5KEMf-9QIBS-62" source="pSRFpLWkt5KEMf-9QIBS-54" parent="pSRFpLWkt5KEMf-9QIBS-17">
          <mxGeometry relative="1" as="geometry">
            <mxPoint x="530" y="1290" as="sourcePoint" />
            <Array as="points">
              <mxPoint x="125.13888888888887" y="520.5" />
              <mxPoint x="70" y="546.5" />
            </Array>
          </mxGeometry>
        </mxCell>
        <mxCell id="pSRFpLWkt5KEMf-9QIBS-62" value="Show Suggestion" style="whiteSpace=wrap;html=1;align=center;verticalAlign=middle;fontFamily=Courier New;fontSize=14;fontColor=default;fontStyle=1;fillColor=none;gradientColor=none;" vertex="1" parent="pSRFpLWkt5KEMf-9QIBS-17">
          <mxGeometry x="20" y="558.5" width="100" height="40" as="geometry" />
        </mxCell>
        <mxCell id="pSRFpLWkt5KEMf-9QIBS-63" value="" style="html=1;rounded=1;curved=0;sourcePerimeterSpacing=0;targetPerimeterSpacing=0;startSize=6;endSize=6;fontFamily=Courier New;fontSize=14;fontColor=default;fontStyle=1;noEdgeStyle=1;orthogonal=1;" edge="1" target="pSRFpLWkt5KEMf-9QIBS-64" source="pSRFpLWkt5KEMf-9QIBS-54" parent="pSRFpLWkt5KEMf-9QIBS-17">
          <mxGeometry relative="1" as="geometry">
            <mxPoint x="511" y="1340" as="sourcePoint" />
            <Array as="points">
              <mxPoint x="170.13888888888886" y="520.5" />
              <mxPoint x="200" y="546.5" />
            </Array>
          </mxGeometry>
        </mxCell>
        <mxCell id="pSRFpLWkt5KEMf-9QIBS-64" value="Show Result List" style="whiteSpace=wrap;html=1;align=center;verticalAlign=middle;fontFamily=Courier New;fontSize=14;fontColor=default;fontStyle=1;fillColor=none;gradientColor=none;" vertex="1" parent="pSRFpLWkt5KEMf-9QIBS-17">
          <mxGeometry x="150" y="558.5" width="100" height="40" as="geometry" />
        </mxCell>
        <mxCell id="pSRFpLWkt5KEMf-9QIBS-67" value="" style="html=1;rounded=1;curved=0;sourcePerimeterSpacing=0;targetPerimeterSpacing=0;startSize=6;endSize=6;fontFamily=Courier New;fontSize=14;fontColor=default;fontStyle=1;noEdgeStyle=1;orthogonal=1;" edge="1" target="pSRFpLWkt5KEMf-9QIBS-68" source="pSRFpLWkt5KEMf-9QIBS-64" parent="pSRFpLWkt5KEMf-9QIBS-17">
          <mxGeometry relative="1" as="geometry">
            <mxPoint x="529" y="1100" as="sourcePoint" />
            <Array as="points">
              <mxPoint x="200" y="610.5" />
              <mxPoint x="200" y="636.5" />
            </Array>
          </mxGeometry>
        </mxCell>
        <mxCell id="pSRFpLWkt5KEMf-9QIBS-68" value="Render each result" style="whiteSpace=wrap;html=1;align=center;verticalAlign=middle;fontFamily=Courier New;fontSize=14;fontColor=default;fontStyle=1;fillColor=none;gradientColor=none;" vertex="1" parent="pSRFpLWkt5KEMf-9QIBS-17">
          <mxGeometry x="112.5" y="648.5" width="175" height="40" as="geometry" />
        </mxCell>
      </root>
    </mxGraphModel>
  </diagram>
</mxfile>
